<svg width="200" height="200" enable-background="new 0 0 200 200" overflow="visible" version="1.1" viewBox="0 0 200 200" xml:space="preserve" xmlns="http://www.w3.org/2000/svg">

<circle cx="100" cy="100" r="97.5" fill="#ED1C24"/><path id="Leica" d="m157.14 110.77c-2.959 0-2.959-3.251-2.959-4.195 0-2.482 1.948-12.354 7.313-12.354 2.257 0 3.47 1.904 3.47 3.328-1e-3 0.296-1.364 13.221-7.824 13.221m-75.542-16.798c1.616 0.097 2.704 1.253 2.647 2.435-0.266 7.629-9.671 6.447-9.671 6.447s1.535-9.218 7.024-8.882zm98.424 14.081s-2.54 1.83-4.343 1.83c-1.367 0-2.116-1.142-2.116-2.395 0-2.818 4.414-16.707 4.414-16.707l-10.799 0.144-0.564 1.878s-1.575-3.185-7.242-3.185c-10.994 0-17.02 9.479-17.282 15.052-0.047 1.209-0.061 1.381-0.061 1.381-0.255 0.295-4.142 4.719-8.911 4.719-3.816 0-4.451-3.197-4.451-5.239 0-2.218 1.844-10.981 7.047-10.981 2.832 0 4.565 2.463 4.565 2.463l1.528-5.016s-2.415-1.877-7.346-1.891c-10.628-0.014-17.887 7.968-18.142 15.156-0.047 1.071-0.087 1.424-0.074 1.491-0.353 0.427-2.973 3.439-6.373 3.439-2.324 0-2.324-1.813-2.324-2.62 0-1.085 4.595-16.731 4.595-16.731l-12.012 0.182-4.286 15.183s-6.583 4.767-15.788 5.426c-4.746 0.325-6.382-2.551-6.382-4.243v-0.702s1.931 0.125 3.382 0.125c1.128 0 15.156-0.971 15.156-9.557 0-4.904-4.897-6.775-11.108-6.775-11.461 0-19.5 7.111-19.5 15.545 0 7.699 6.584 11.008 15.069 11.008 9.617 0 19.005-5.889 19.005-5.889s0.524 5.889 8.119 5.889c7.836 0 13.97-5.889 13.97-5.889s3.413 5.664 11.209 5.664c7.964 0 14.081-6.443 14.081-6.443s2.133 6.077 10.023 6.077c6.164 0 9.473-4.044 9.473-4.044s1.76 4.044 7.135 4.044c6.553 0 11.475-4.622 11.475-4.622zm-152.85 14.531c-3.033 0.088-5.008-1.928-5.008-3.057 0-2.496 3.063-2.889 5.008-2.751 4.706 0.255 8.75 1.864 8.75 1.864s-4.773 3.82-8.75 3.944m44.8-58.454c3.534 0 4.706 2.868 4.41 5.448-1.72 15.143-16.758 18.609-16.758 18.609s3.735-24.057 12.348-24.057zm110.22 54.202s-25.24 8.793-73.396 8.199c-33.214-0.406-58.538-10.215-58.538-10.215s0.819-1.596 1.357-2.671c3.329-6.788 7.255-20.561 7.255-20.561s22.828-6.361 22.828-24.49c0-5.736-5.334-9.432-10.601-9.657-18.397-0.716-23.5 25.502-24.628 29.96-0.071 0.322-0.098 0.42-0.098 0.42-5.68-0.787-8.881-1.941-8.881-1.941l-1.3 3.537c3.833 1.816 9.405 2.408 9.405 2.408-1.102 7.023-6.557 20.325-6.557 20.325s-5.035-1.669-11.29-1.669c-8.109 0-10.896 3.859-11.095 6.281-0.538 6.258 7.333 9.197 12.828 9.197 10.726 0 16.298-5.788 16.298-5.788s30.167 11.394 61.632 11.394c41.186 0 75.915-10.967 75.915-10.967zm-73.678-41.73c-3.826 0-6.647 1.556-6.647 5.146 0 3.625 3.262 4.622 6.647 4.622 3.406 0 6.507-1.603 6.507-5.298 0-3.708-3.736-4.47-6.507-4.47" fill="#fff"/>
</svg>